<?xml version="1.0" encoding="UTF-8" standalone="no"?>
<svg
   xmlns:dc="http://purl.org/dc/elements/1.1/"
   xmlns:cc="http://creativecommons.org/ns#"
   xmlns:rdf="http://www.w3.org/1999/02/22-rdf-syntax-ns#"
   xmlns:svg="http://www.w3.org/2000/svg"
   xmlns="http://www.w3.org/2000/svg"
   xmlns:sodipodi="http://sodipodi.sourceforge.net/DTD/sodipodi-0.dtd"
   xmlns:inkscape="http://www.inkscape.org/namespaces/inkscape"
   version="1.1"
   id="Layer_1"
   x="0px"
   y="0px"
   width="414.4353"
   viewBox="0 0 414.4353 240"
   enable-background="new 0 0 3000 1077"
   xml:space="preserve"
   sodipodi:docname="NFL plus logo.svg"
   inkscape:version="0.92.5 (2060ec1f9f, 2020-04-08)"
   height="240"><metadata
   id="metadata1027"><rdf:RDF><cc:Work
       rdf:about=""><dc:format>image/svg+xml</dc:format><dc:type
         rdf:resource="http://purl.org/dc/dcmitype/StillImage" /><dc:title></dc:title></cc:Work></rdf:RDF></metadata><defs
   id="defs1025"><clipPath
     id="a"><path
       id="path1033"
       d="M 0,0 H 48 V 31.95 H 0 Z"
       inkscape:connector-curvature="0"
       style="fill:#ffffff" /></clipPath><clipPath
     id="clip0_1343_14415"><rect
       id="rect1123"
       transform="translate(20,117)"
       height="266.38599"
       width="460"
       x="0"
       y="0"
       style="fill:#ffffff" /></clipPath></defs><sodipodi:namedview
   pagecolor="#ffffff"
   bordercolor="#666666"
   borderopacity="1"
   objecttolerance="10"
   gridtolerance="10"
   guidetolerance="10"
   inkscape:pageopacity="0"
   inkscape:pageshadow="2"
   inkscape:window-width="1920"
   inkscape:window-height="1017"
   id="namedview1023"
   showgrid="false"
   inkscape:pagecheckerboard="true"
   inkscape:zoom="1"
   inkscape:cx="264.08517"
   inkscape:cy="50.11201"
   inkscape:window-x="1912"
   inkscape:window-y="70"
   inkscape:window-maximized="1"
   inkscape:current-layer="Layer_1"
   fit-margin-top="0"
   fit-margin-left="0"
   fit-margin-right="0"
   fit-margin-bottom="0" />


















































<g
   style="fill:none"
   id="g1139"
   transform="matrix(0.90094829,0,0,0.90094829,-18.018966,-105.41095)"><g
     id="g1121"
     clip-path="url(#clip0_1343_14415)"><path
       id="path1117"
       d="M 111.292,150.746 98.4944,143.487 V 117 H 156.51 v 26.478 l -12.154,7.258 V 353.753 L 111.292,342.391 68.208,205.762 v 85.1 l 14.2876,14.388 v 27.242 L 20,311.01 v -22.908 l 14.5084,-5.64 V 150.525 L 20,143.478 V 117 h 48.208 l 43.084,125.065 z m 106.858,190.679 12.374,12.089 v 29.872 l -61.852,-21.261 v -23.092 l 13.653,-5.557 V 150.534 l -13.653,-6.836 V 117 h 107.281 v 53.82 h -23.671 l -7.25,-21.997 h -27.306 v 62.569 h 20.48 l 8.105,-11.748 h 16.422 v 54.887 h -16.422 l -7.682,-11.105 h -20.903 v 97.999 z m 68.254,-3.671 15.355,-12.604 V 150.534 L 288.75,143.698 V 117 h 61.852 v 26.698 l -12.153,6.836 v 160.963 l 26.33,-9.053 5.447,-43.184 h 25.171 v 67.445 l -108.993,37.471 v -26.413 z"
       inkscape:connector-curvature="0"
       style="fill:#000000" /><path
       id="path1119"
       d="M 438.663,158.336 431.883,117 h -13.542 l -6.781,41.336 -41.335,6.78 v 13.542 l 41.335,6.781 6.781,41.335 h 13.542 l 6.78,-41.335 41.336,-6.781 v -13.542 z"
       inkscape:connector-curvature="0"
       style="fill:#004fff" /></g></g></svg>